<?xml version="1.0" encoding="UTF-8" standalone="no"?>
<!DOCTYPE svg PUBLIC "-//W3C//DTD SVG 1.1//EN"
 "http://www.w3.org/Graphics/SVG/1.1/DTD/svg11.dtd">
<!-- Generated by graphviz version 2.40.1 (20161225.0304)
 -->
<!-- Title: dependencies Pages: 1 -->
<svg width="504pt" height="287pt"
 viewBox="0.00 0.00 504.00 287.00" xmlns="http://www.w3.org/2000/svg" xmlns:xlink="http://www.w3.org/1999/xlink">
<g id="graph0" class="graph" transform="scale(1 1) rotate(0) translate(4 283)">
<title>dependencies</title>
<polygon fill="#ffffff" stroke="transparent" points="-4,4 -4,-283 500,-283 500,4 -4,4"/>
<text text-anchor="start" x="227.0091" y="-42.4" font-family="sans-serif" font-weight="bold" font-size="14.00" fill="#000000">Legend</text>
<polygon fill="#ffffb3" stroke="transparent" points="14,-10 14,-30 34,-30 34,-10 14,-10"/>
<text text-anchor="start" x="37.629" y="-15.4" font-family="sans-serif" font-size="14.00" fill="#000000"> &#160;Declarations</text>
<polygon fill="#8dd3c7" stroke="transparent" points="127,-10 127,-30 147,-30 147,-10 127,-10"/>
<text text-anchor="start" x="150.7251" y="-15.4" font-family="sans-serif" font-size="14.00" fill="#000000"> &#160;Module</text>
<polygon fill="#80b1d3" stroke="transparent" points="213,-10 213,-30 233,-30 233,-10 213,-10"/>
<text text-anchor="start" x="236.7812" y="-15.4" font-family="sans-serif" font-size="14.00" fill="#000000"> &#160;Bootstrap</text>
<polygon fill="#fdb462" stroke="transparent" points="310,-10 310,-30 330,-30 330,-10 310,-10"/>
<text text-anchor="start" x="333.6732" y="-15.4" font-family="sans-serif" font-size="14.00" fill="#000000"> &#160;Providers</text>
<polygon fill="#fb8072" stroke="transparent" points="406,-10 406,-30 426,-30 426,-10 406,-10"/>
<text text-anchor="start" x="429.7258" y="-15.4" font-family="sans-serif" font-size="14.00" fill="#000000"> &#160;Exports</text>
<g id="clust1" class="cluster">
<title>cluster_AppModule</title>
<polygon fill="none" stroke="#000000" stroke-dasharray="1,5" points="29,-146 29,-271 437,-271 437,-146 29,-146"/>
</g>
<g id="clust3" class="cluster">
<title>cluster_AppModule_imports</title>
<polygon fill="none" stroke="#000000" points="175,-154 175,-206 429,-206 429,-154 175,-154"/>
</g>
<g id="clust6" class="cluster">
<title>cluster_AppModule_providers</title>
<polygon fill="none" stroke="#000000" points="37,-154 37,-206 167,-206 167,-154 37,-154"/>
</g>
<g id="clust7" class="cluster">
<title>cluster_ChillisModule</title>
<polygon fill="none" stroke="#000000" stroke-dasharray="1,5" points="125,-70 125,-138 289,-138 289,-70 125,-70"/>
</g>
<g id="clust12" class="cluster">
<title>cluster_ChillisModule_providers</title>
<polygon fill="none" stroke="#000000" points="133,-78 133,-130 281,-130 281,-78 133,-78"/>
</g>
<g id="clust13" class="cluster">
<title>cluster_TranslationModule</title>
<polygon fill="none" stroke="#000000" stroke-dasharray="1,5" points="297,-70 297,-138 467,-138 467,-70 297,-70"/>
</g>
<g id="clust18" class="cluster">
<title>cluster_TranslationModule_providers</title>
<polygon fill="none" stroke="#000000" points="305,-78 305,-130 459,-130 459,-78 305,-78"/>
</g>
<!-- ChillisModule -->
<g id="node1" class="node">
<title>ChillisModule</title>
<polygon fill="#8dd3c7" stroke="#000000" points="279.3935,-198 276.3935,-202 255.3935,-202 252.3935,-198 182.6065,-198 182.6065,-162 279.3935,-162 279.3935,-198"/>
<text text-anchor="middle" x="231" y="-175.8" font-family="Times,serif" font-size="14.00" fill="#000000">ChillisModule</text>
</g>
<!-- AppModule -->
<g id="node3" class="node">
<title>AppModule</title>
<polygon fill="#8dd3c7" stroke="#000000" points="272.6571,-263 269.6571,-267 248.6571,-267 245.6571,-263 189.3429,-263 189.3429,-227 272.6571,-227 272.6571,-263"/>
<text text-anchor="middle" x="231" y="-240.8" font-family="Times,serif" font-size="14.00" fill="#000000">AppModule</text>
</g>
<!-- ChillisModule&#45;&gt;AppModule -->
<g id="edge1" class="edge">
<title>ChillisModule&#45;&gt;AppModule</title>
<path fill="none" stroke="#000000" d="M231,-198.1061C231,-198.1061 231,-216.991 231,-216.991"/>
<polygon fill="#000000" stroke="#000000" points="227.5001,-216.9909 231,-226.991 234.5001,-216.991 227.5001,-216.9909"/>
</g>
<!-- TranslationModule -->
<g id="node2" class="node">
<title>TranslationModule</title>
<polygon fill="#8dd3c7" stroke="#000000" points="420.809,-198 417.809,-202 396.809,-202 393.809,-198 297.191,-198 297.191,-162 420.809,-162 420.809,-198"/>
<text text-anchor="middle" x="359" y="-175.8" font-family="Times,serif" font-size="14.00" fill="#000000">TranslationModule</text>
</g>
<!-- TranslationModule&#45;&gt;AppModule -->
<g id="edge2" class="edge">
<title>TranslationModule&#45;&gt;AppModule</title>
<path fill="none" stroke="#000000" d="M359,-198.1061C359,-217.3391 359,-245 359,-245 359,-245 282.912,-245 282.912,-245"/>
<polygon fill="#000000" stroke="#000000" points="282.912,-241.5001 272.912,-245 282.912,-248.5001 282.912,-241.5001"/>
</g>
<!-- AppService -->
<g id="node4" class="node">
<title>AppService</title>
<ellipse fill="#fdb462" stroke="#000000" cx="102" cy="-180" rx="56.7406" ry="18"/>
<text text-anchor="middle" x="102" y="-175.8" font-family="Times,serif" font-size="14.00" fill="#000000">AppService</text>
</g>
<!-- AppService&#45;&gt;AppModule -->
<g id="edge3" class="edge">
<title>AppService&#45;&gt;AppModule</title>
<path fill="none" stroke="#000000" d="M102,-198.1061C102,-217.3391 102,-245 102,-245 102,-245 179.1174,-245 179.1174,-245"/>
<polygon fill="#000000" stroke="#000000" points="179.1174,-248.5001 189.1174,-245 179.1174,-241.5001 179.1174,-248.5001"/>
</g>
<!-- ChillisService -->
<g id="node5" class="node">
<title>ChillisService</title>
<ellipse fill="#fdb462" stroke="#000000" cx="207" cy="-104" rx="65.5026" ry="18"/>
<text text-anchor="middle" x="207" y="-99.8" font-family="Times,serif" font-size="14.00" fill="#000000">ChillisService</text>
</g>
<!-- ChillisService&#45;&gt;ChillisModule -->
<g id="edge4" class="edge">
<title>ChillisService&#45;&gt;ChillisModule</title>
<path fill="none" stroke="#000000" d="M227.6521,-121.2456C227.6521,-121.2456 227.6521,-151.7629 227.6521,-151.7629"/>
<polygon fill="#000000" stroke="#000000" points="224.1522,-151.7628 227.6521,-161.7629 231.1522,-151.7629 224.1522,-151.7628"/>
</g>
<!-- WatsonService -->
<g id="node6" class="node">
<title>WatsonService</title>
<ellipse fill="#fdb462" stroke="#000000" cx="382" cy="-104" rx="69.48" ry="18"/>
<text text-anchor="middle" x="382" y="-99.8" font-family="Times,serif" font-size="14.00" fill="#000000">WatsonService</text>
</g>
<!-- WatsonService&#45;&gt;TranslationModule -->
<g id="edge5" class="edge">
<title>WatsonService&#45;&gt;TranslationModule</title>
<path fill="none" stroke="#000000" d="M366.5822,-121.627C366.5822,-121.627 366.5822,-151.9409 366.5822,-151.9409"/>
<polygon fill="#000000" stroke="#000000" points="363.0823,-151.9408 366.5822,-161.9409 370.0823,-151.9409 363.0823,-151.9408"/>
</g>
</g>
</svg>
